<svg width="1024" height="1024" viewBox="0 0 1024 1024" fill="none" xmlns="http://www.w3.org/2000/svg">
<mask id="mask0_3327_78" style="mask-type:alpha" maskUnits="userSpaceOnUse" x="0" y="0" width="1024" height="1024">
<rect width="1024" height="1024" fill="url(#paint0_linear_3327_78)"/>
</mask>
<g mask="url(#mask0_3327_78)">
<rect x="0.5" y="0.5" width="1023" height="1023" rx="79.5" fill="url(#paint1_radial_3327_78)" stroke="black"/>
<path d="M510.537 72.1801C752.635 72.1802 948.894 268.44 948.894 510.537C948.894 752.635 752.635 948.894 510.537 948.894C268.44 948.894 72.1802 752.635 72.1801 510.537C72.1801 268.44 268.44 72.1801 510.537 72.1801Z" fill="#8C00FF" stroke="#8C00FF"/>
<path d="M491.52 146.585C693.332 146.585 856.934 310.187 856.935 512C856.935 713.812 693.332 877.415 491.52 877.415C289.707 877.414 126.105 713.812 126.105 512C126.106 310.187 289.707 146.586 491.52 146.585Z" fill="#8C00FF" stroke="#8C00FF" stroke-width="0.6"/>
<path d="M491.52 863.543C686.934 863.543 845.348 705.129 845.348 509.714C845.348 314.3 686.934 155.886 491.52 155.886C296.106 155.886 137.691 314.3 137.691 509.714C137.691 705.129 296.106 863.543 491.52 863.543Z" stroke="#AA43FF" stroke-opacity="0.5" stroke-width="0.6"/>
<path d="M512.731 220.66C674.038 220.66 804.803 351.425 804.803 512.731C804.803 674.038 674.038 804.803 512.731 804.803C351.425 804.803 220.66 674.038 220.66 512.731C220.66 351.425 351.425 220.66 512.731 220.66Z" fill="#8C00FF" stroke="#8C00FF"/>
<path opacity="0.9" d="M510.224 779.807C659.111 779.807 779.807 659.111 779.807 510.224C779.807 361.337 659.111 240.64 510.224 240.64C361.337 240.64 240.64 361.337 240.64 510.224C240.64 659.111 361.337 779.807 510.224 779.807Z" fill="url(#paint2_radial_3327_78)" stroke="#8C00FF" stroke-width="0.6"/>
<path d="M512 282.1C638.97 282.1 741.9 385.03 741.9 512C741.9 638.97 638.97 741.9 512 741.9C385.03 741.9 282.1 638.97 282.1 512C282.1 385.03 385.03 282.1 512 282.1Z" fill="#AA43FF" fill-opacity="0.2" stroke="#8C00FF"/>
<mask id="path-9-outside-1_3327_78" maskUnits="userSpaceOnUse" x="7" y="321" width="1033" height="401" fill="black">
<rect fill="white" x="7" y="321" width="1033" height="401"/>
<path d="M47.9453 676V472.8C58.0786 469.867 71.1453 467.2 87.1453 464.8C103.145 462.133 119.945 460.8 137.545 460.8C161.545 460.8 180.212 464.933 193.545 473.2C206.879 481.2 216.212 492.4 221.545 506.8C226.879 521.2 229.545 538 229.545 557.2V676H169.945V564.4C169.945 551.6 168.879 541.333 166.745 533.6C164.612 525.867 160.879 520.267 155.545 516.8C150.479 513.333 143.279 511.6 133.945 511.6C129.679 511.6 125.145 511.867 120.345 512.4C115.545 512.667 111.279 513.067 107.545 513.6V676H47.9453Z"/>
<path d="M302.442 676C295.776 662.667 288.842 648.267 281.642 632.8C274.709 617.067 267.776 600.4 260.842 582.8C254.176 564.933 247.509 546.267 240.842 526.8C234.176 507.067 227.642 486.667 221.242 465.6H284.442C288.176 479.467 292.442 494.8 297.242 511.6C302.042 528.133 307.109 544.533 312.442 560.8C318.042 577.067 323.242 591.6 328.042 604.4C331.509 594.8 335.242 584.133 339.242 572.4C343.242 560.667 347.109 548.667 350.842 536.4C354.842 523.867 358.576 511.6 362.042 499.6C365.776 487.333 368.976 476 371.642 465.6H433.242C426.842 486.667 420.309 507.067 413.642 526.8C406.976 546.267 400.176 564.933 393.242 582.8C386.576 600.4 379.776 617.067 372.842 632.8C365.909 648.267 358.976 662.667 352.042 676H302.442ZM433.164 676V465.6H492.764V676H433.164ZM463.164 432C453.564 432 445.164 428.933 437.964 422.8C431.031 416.4 427.564 407.733 427.564 396.8C427.564 385.867 431.031 377.333 437.964 371.2C445.164 364.8 453.564 361.6 463.164 361.6C472.764 361.6 481.031 364.8 487.964 371.2C495.164 377.333 498.764 385.867 498.764 396.8C498.764 407.733 495.164 416.4 487.964 422.8C481.031 428.933 472.764 432 463.164 432ZM617.989 681.6C592.656 681.6 571.722 676.8 555.189 667.2C538.922 657.6 526.789 644.533 518.789 628C510.789 611.467 506.789 592.933 506.789 572.4C506.789 547.6 511.589 526.933 521.189 510.4C531.056 493.6 543.589 481.067 558.789 472.8C574.256 464.267 590.522 460 607.589 460C627.589 460 644.789 464.133 659.189 472.4C673.589 480.4 684.656 492.4 692.389 508.4C700.389 524.4 704.389 544.267 704.389 568C704.389 571.467 704.256 575.333 703.989 579.6C703.722 583.6 703.456 587.2 703.189 590.4H567.989C569.322 602.667 575.056 612.4 585.189 619.6C595.322 626.8 608.922 630.4 625.989 630.4C636.922 630.4 647.589 629.467 657.989 627.6C668.656 625.467 677.322 622.933 683.989 620L691.989 668.4C685.589 671.6 675.322 674.533 661.189 677.2C647.322 680.133 632.922 681.6 617.989 681.6ZM567.989 549.6H646.789C646.522 542.933 645.056 536.533 642.389 530.4C639.722 524.267 635.589 519.2 629.989 515.2C624.656 511.2 617.456 509.2 608.389 509.2C599.322 509.2 591.989 511.2 586.389 515.2C581.056 518.933 576.922 523.867 573.989 530C571.056 536.133 569.056 542.667 567.989 549.6ZM763.983 676C759.183 664.8 753.983 651.6 748.383 636.4C742.783 620.933 736.916 604 730.783 585.6C724.649 567.2 718.516 547.867 712.383 527.6C706.249 507.067 700.249 486.4 694.383 465.6H757.183C759.316 475.2 761.583 485.733 763.983 497.2C766.649 508.4 769.316 520 771.983 532C774.916 544 777.849 556.133 780.783 568.4C783.983 580.4 787.183 592 790.383 603.2C795.183 587.467 799.716 571.467 803.983 555.2C808.516 538.933 812.649 523.2 816.383 508C820.383 492.533 823.716 478.4 826.383 465.6H869.583C872.516 478.133 875.716 492.133 879.183 507.6C882.916 522.8 886.916 538.667 891.183 555.2C895.449 571.467 899.849 587.467 904.383 603.2C907.583 592 910.649 580.4 913.583 568.4C916.783 556.133 919.849 544 922.783 532C925.716 520 928.383 508.4 930.783 497.2C933.449 485.733 935.849 475.2 937.983 465.6H999.983C994.116 486.4 987.983 506.933 981.583 527.2C975.449 547.467 969.316 566.8 963.183 585.2C957.049 603.6 951.183 620.533 945.583 636C939.983 651.467 934.783 664.8 929.983 676H883.583C879.316 662.4 874.916 648.933 870.383 635.6C866.116 622.267 861.983 608.933 857.983 595.6C853.983 582.267 850.116 568.8 846.383 555.2C842.916 568.8 839.183 582.267 835.183 595.6C831.449 608.933 827.449 622.267 823.183 635.6C819.183 648.933 814.916 662.4 810.383 676H763.983Z"/>
</mask>
<path d="M47.9453 676V472.8C58.0786 469.867 71.1453 467.2 87.1453 464.8C103.145 462.133 119.945 460.8 137.545 460.8C161.545 460.8 180.212 464.933 193.545 473.2C206.879 481.2 216.212 492.4 221.545 506.8C226.879 521.2 229.545 538 229.545 557.2V676H169.945V564.4C169.945 551.6 168.879 541.333 166.745 533.6C164.612 525.867 160.879 520.267 155.545 516.8C150.479 513.333 143.279 511.6 133.945 511.6C129.679 511.6 125.145 511.867 120.345 512.4C115.545 512.667 111.279 513.067 107.545 513.6V676H47.9453Z" fill="#F7EEFF"/>
<path d="M302.442 676C295.776 662.667 288.842 648.267 281.642 632.8C274.709 617.067 267.776 600.4 260.842 582.8C254.176 564.933 247.509 546.267 240.842 526.8C234.176 507.067 227.642 486.667 221.242 465.6H284.442C288.176 479.467 292.442 494.8 297.242 511.6C302.042 528.133 307.109 544.533 312.442 560.8C318.042 577.067 323.242 591.6 328.042 604.4C331.509 594.8 335.242 584.133 339.242 572.4C343.242 560.667 347.109 548.667 350.842 536.4C354.842 523.867 358.576 511.6 362.042 499.6C365.776 487.333 368.976 476 371.642 465.6H433.242C426.842 486.667 420.309 507.067 413.642 526.8C406.976 546.267 400.176 564.933 393.242 582.8C386.576 600.4 379.776 617.067 372.842 632.8C365.909 648.267 358.976 662.667 352.042 676H302.442ZM433.164 676V465.6H492.764V676H433.164ZM463.164 432C453.564 432 445.164 428.933 437.964 422.8C431.031 416.4 427.564 407.733 427.564 396.8C427.564 385.867 431.031 377.333 437.964 371.2C445.164 364.8 453.564 361.6 463.164 361.6C472.764 361.6 481.031 364.8 487.964 371.2C495.164 377.333 498.764 385.867 498.764 396.8C498.764 407.733 495.164 416.4 487.964 422.8C481.031 428.933 472.764 432 463.164 432ZM617.989 681.6C592.656 681.6 571.722 676.8 555.189 667.2C538.922 657.6 526.789 644.533 518.789 628C510.789 611.467 506.789 592.933 506.789 572.4C506.789 547.6 511.589 526.933 521.189 510.4C531.056 493.6 543.589 481.067 558.789 472.8C574.256 464.267 590.522 460 607.589 460C627.589 460 644.789 464.133 659.189 472.4C673.589 480.4 684.656 492.4 692.389 508.4C700.389 524.4 704.389 544.267 704.389 568C704.389 571.467 704.256 575.333 703.989 579.6C703.722 583.6 703.456 587.2 703.189 590.4H567.989C569.322 602.667 575.056 612.4 585.189 619.6C595.322 626.8 608.922 630.4 625.989 630.4C636.922 630.4 647.589 629.467 657.989 627.6C668.656 625.467 677.322 622.933 683.989 620L691.989 668.4C685.589 671.6 675.322 674.533 661.189 677.2C647.322 680.133 632.922 681.6 617.989 681.6ZM567.989 549.6H646.789C646.522 542.933 645.056 536.533 642.389 530.4C639.722 524.267 635.589 519.2 629.989 515.2C624.656 511.2 617.456 509.2 608.389 509.2C599.322 509.2 591.989 511.2 586.389 515.2C581.056 518.933 576.922 523.867 573.989 530C571.056 536.133 569.056 542.667 567.989 549.6ZM763.983 676C759.183 664.8 753.983 651.6 748.383 636.4C742.783 620.933 736.916 604 730.783 585.6C724.649 567.2 718.516 547.867 712.383 527.6C706.249 507.067 700.249 486.4 694.383 465.6H757.183C759.316 475.2 761.583 485.733 763.983 497.2C766.649 508.4 769.316 520 771.983 532C774.916 544 777.849 556.133 780.783 568.4C783.983 580.4 787.183 592 790.383 603.2C795.183 587.467 799.716 571.467 803.983 555.2C808.516 538.933 812.649 523.2 816.383 508C820.383 492.533 823.716 478.4 826.383 465.6H869.583C872.516 478.133 875.716 492.133 879.183 507.6C882.916 522.8 886.916 538.667 891.183 555.2C895.449 571.467 899.849 587.467 904.383 603.2C907.583 592 910.649 580.4 913.583 568.4C916.783 556.133 919.849 544 922.783 532C925.716 520 928.383 508.4 930.783 497.2C933.449 485.733 935.849 475.2 937.983 465.6H999.983C994.116 486.4 987.983 506.933 981.583 527.2C975.449 547.467 969.316 566.8 963.183 585.2C957.049 603.6 951.183 620.533 945.583 636C939.983 651.467 934.783 664.8 929.983 676H883.583C879.316 662.4 874.916 648.933 870.383 635.6C866.116 622.267 861.983 608.933 857.983 595.6C853.983 582.267 850.116 568.8 846.383 555.2C842.916 568.8 839.183 582.267 835.183 595.6C831.449 608.933 827.449 622.267 823.183 635.6C819.183 648.933 814.916 662.4 810.383 676H763.983Z" fill="#EFDBFF"/>
<path d="M47.9453 676H7.94531C7.94531 698.091 25.8539 716 47.9453 716V676ZM47.9453 472.8L36.823 434.377C19.7175 439.329 7.94531 454.992 7.94531 472.8H47.9453ZM87.1453 464.8L93.0789 504.357C93.2933 504.325 93.5075 504.291 93.7213 504.256L87.1453 464.8ZM193.545 473.2L172.468 507.196C172.633 507.299 172.799 507.4 172.965 507.5L193.545 473.2ZM221.545 506.8L184.035 520.693L184.035 520.693L221.545 506.8ZM229.545 676V716C251.637 716 269.545 698.091 269.545 676H229.545ZM169.945 676H129.945C129.945 698.091 147.854 716 169.945 716V676ZM166.745 533.6L128.186 544.237L128.186 544.237L166.745 533.6ZM155.545 516.8L132.958 549.812C133.219 549.991 133.481 550.166 133.746 550.338L155.545 516.8ZM120.345 512.4L122.564 552.338C123.298 552.298 124.032 552.237 124.763 552.155L120.345 512.4ZM107.545 513.6L101.888 474.002C82.1825 476.817 67.5453 493.694 67.5453 513.6H107.545ZM107.545 676V716C129.637 716 147.545 698.091 147.545 676H107.545ZM47.9453 676H87.9453V472.8H47.9453H7.94531V676H47.9453ZM47.9453 472.8L59.0677 511.223C66.8547 508.968 78.013 506.617 93.0789 504.357L87.1453 464.8L81.2117 425.243C64.2777 427.783 49.3026 430.765 36.823 434.377L47.9453 472.8ZM87.1453 464.8L93.7213 504.256C107.374 501.98 121.964 500.8 137.545 500.8V460.8V420.8C117.926 420.8 98.9171 422.286 80.5693 425.344L87.1453 464.8ZM137.545 460.8V500.8C157.745 500.8 167.977 504.412 172.468 507.196L193.545 473.2L214.623 439.204C192.447 425.455 165.345 420.8 137.545 420.8V460.8ZM193.545 473.2L172.965 507.5C178.606 510.884 181.904 514.938 184.035 520.693L221.545 506.8L259.055 492.907C250.52 469.862 235.151 451.516 214.125 438.9L193.545 473.2ZM221.545 506.8L184.035 520.693C187.368 529.689 189.545 541.602 189.545 557.2H229.545H269.545C269.545 534.398 266.39 512.711 259.055 492.907L221.545 506.8ZM229.545 557.2H189.545V676H229.545H269.545V557.2H229.545ZM229.545 676V636H169.945V676V716H229.545V676ZM169.945 676H209.945V564.4H169.945H129.945V676H169.945ZM169.945 564.4H209.945C209.945 549.869 208.788 535.587 205.305 522.963L166.745 533.6L128.186 544.237C128.97 547.079 129.945 553.331 129.945 564.4H169.945ZM166.745 533.6L205.305 522.963C201.274 508.35 192.849 493.34 177.345 483.262L155.545 516.8L133.746 550.338C131.592 548.938 130.035 547.245 129.063 545.788C128.163 544.438 128.041 543.712 128.186 544.237L166.745 533.6ZM155.545 516.8L178.133 483.788C163.779 473.967 147.415 471.6 133.945 471.6V511.6V551.6C135.052 551.6 135.85 551.652 136.375 551.707C136.901 551.762 137.084 551.813 136.983 551.789C136.803 551.746 135.173 551.328 132.958 549.812L155.545 516.8ZM133.945 511.6V471.6C128.025 471.6 122.007 471.969 115.928 472.645L120.345 512.4L124.763 552.155C128.283 551.764 131.332 551.6 133.945 551.6V511.6ZM120.345 512.4L118.127 472.462C112.471 472.776 107.022 473.269 101.888 474.002L107.545 513.6L113.202 553.198C115.536 552.865 118.619 552.558 122.564 552.338L120.345 512.4ZM107.545 513.6H67.5453V676H107.545H147.545V513.6H107.545ZM107.545 676V636H47.9453V676V716H107.545V676ZM302.442 676L266.665 693.889C273.441 707.44 287.291 716 302.442 716V676ZM281.642 632.8L245.039 648.93C245.15 649.182 245.263 649.432 245.379 649.681L281.642 632.8ZM260.842 582.8L223.366 596.784C223.451 597.01 223.537 597.236 223.626 597.461L260.842 582.8ZM240.842 526.8L202.946 539.603C202.964 539.655 202.982 539.707 203 539.76L240.842 526.8ZM221.242 465.6V425.6C208.573 425.6 196.654 431.601 189.109 441.779C181.564 451.956 179.287 465.105 182.969 477.227L221.242 465.6ZM284.442 465.6L323.067 455.201C318.365 437.736 302.529 425.6 284.442 425.6V465.6ZM297.242 511.6L258.781 522.589C258.797 522.643 258.813 522.698 258.828 522.752L297.242 511.6ZM312.442 560.8L274.433 573.262C274.494 573.449 274.557 573.635 274.621 573.82L312.442 560.8ZM328.042 604.4L290.589 618.445C296.475 634.141 311.524 644.502 328.287 644.399C345.05 644.297 359.971 633.753 365.664 617.986L328.042 604.4ZM339.242 572.4L301.382 559.493V559.493L339.242 572.4ZM350.842 536.4L312.736 524.238C312.681 524.41 312.628 524.581 312.575 524.754L350.842 536.4ZM362.042 499.6L323.775 487.954C323.72 488.135 323.666 488.316 323.614 488.498L362.042 499.6ZM371.642 465.6V425.6C353.377 425.6 337.432 437.972 332.896 455.665L371.642 465.6ZM433.242 465.6L471.515 477.227C475.198 465.105 472.92 451.956 465.375 441.779C457.831 431.601 445.911 425.6 433.242 425.6V465.6ZM413.642 526.8L451.485 539.76C451.503 539.707 451.52 539.655 451.538 539.603L413.642 526.8ZM393.242 582.8L355.952 568.329C355.913 568.43 355.874 568.53 355.836 568.631L393.242 582.8ZM372.842 632.8L409.343 649.162C409.377 649.085 409.412 649.008 409.446 648.93L372.842 632.8ZM352.042 676V716C366.965 716 380.646 707.694 387.531 694.454L352.042 676ZM302.442 676L338.219 658.111C331.741 645.155 324.97 631.095 317.905 615.919L281.642 632.8L245.379 649.681C252.714 665.439 259.81 680.178 266.665 693.889L302.442 676ZM281.642 632.8L318.246 616.67C311.546 601.467 304.816 585.293 298.059 568.139L260.842 582.8L223.626 597.461C230.735 615.507 237.871 632.666 245.039 648.93L281.642 632.8ZM260.842 582.8L298.318 568.816C291.788 551.315 285.243 532.991 278.685 513.84L240.842 526.8L203 539.76C209.775 559.543 216.563 578.552 223.366 596.784L260.842 582.8ZM240.842 526.8L278.738 513.997C272.21 494.675 265.802 474.668 259.515 453.973L221.242 465.6L182.969 477.227C189.482 498.665 196.141 519.458 202.946 539.603L240.842 526.8ZM221.242 465.6V505.6H284.442V465.6V425.6H221.242V465.6ZM284.442 465.6L245.818 475.999C249.614 490.099 253.937 505.633 258.781 522.589L297.242 511.6L335.703 500.611C330.948 483.967 326.737 468.834 323.067 455.201L284.442 465.6ZM297.242 511.6L258.828 522.752C263.755 539.722 268.957 556.559 274.433 573.262L312.442 560.8L350.451 548.338C345.261 532.508 340.329 516.545 335.656 500.448L297.242 511.6ZM312.442 560.8L274.621 573.82C280.31 590.347 285.634 605.232 290.589 618.445L328.042 604.4L365.495 590.355C360.85 577.968 355.774 563.786 350.264 547.779L312.442 560.8ZM328.042 604.4L365.664 617.986C369.227 608.119 373.041 597.221 377.103 585.307L339.242 572.4L301.382 559.493C297.443 571.046 293.79 581.481 290.42 590.814L328.042 604.4ZM339.242 572.4L377.103 585.307C381.25 573.142 385.252 560.721 389.109 548.046L350.842 536.4L312.575 524.754C308.966 536.612 305.235 548.192 301.382 559.493L339.242 572.4ZM350.842 536.4L388.949 548.562C393.055 535.695 396.896 523.075 400.471 510.702L362.042 499.6L323.614 488.498C320.255 500.125 316.629 512.038 312.736 524.238L350.842 536.4ZM362.042 499.6L400.309 511.246C404.183 498.518 407.55 486.606 410.389 475.535L371.642 465.6L332.896 455.665C330.401 465.394 327.368 476.149 323.775 487.954L362.042 499.6ZM371.642 465.6V505.6H433.242V465.6V425.6H371.642V465.6ZM433.242 465.6L394.969 453.973C388.682 474.668 382.274 494.675 375.746 513.997L413.642 526.8L451.538 539.603C458.344 519.458 465.002 498.665 471.515 477.227L433.242 465.6ZM413.642 526.8L375.8 513.84C369.294 532.836 362.677 550.997 355.952 568.329L393.242 582.8L430.533 597.271C437.674 578.869 444.657 559.697 451.485 539.76L413.642 526.8ZM393.242 582.8L355.836 568.631C349.396 585.631 342.862 601.64 336.239 616.67L372.842 632.8L409.446 648.93C416.689 632.493 423.755 615.169 430.649 596.969L393.242 582.8ZM372.842 632.8L336.342 616.438C329.686 631.285 323.088 644.98 316.554 657.546L352.042 676L387.531 694.454C394.863 680.353 402.132 665.248 409.343 649.162L372.842 632.8ZM352.042 676V636H302.442V676V716H352.042V676ZM433.164 676H393.164C393.164 698.091 411.073 716 433.164 716V676ZM433.164 465.6V425.6C411.073 425.6 393.164 443.509 393.164 465.6H433.164ZM492.764 465.6H532.764C532.764 443.509 514.855 425.6 492.764 425.6V465.6ZM492.764 676V716C514.855 716 532.764 698.091 532.764 676H492.764ZM437.964 422.8L410.833 452.192C411.223 452.553 411.621 452.905 412.025 453.25L437.964 422.8ZM437.964 371.2L464.467 401.16C464.491 401.139 464.515 401.118 464.539 401.096L437.964 371.2ZM487.964 371.2L460.833 400.592C461.223 400.953 461.621 401.305 462.025 401.65L487.964 371.2ZM487.964 422.8L514.467 452.76C514.491 452.739 514.515 452.718 514.539 452.696L487.964 422.8ZM433.164 676H473.164V465.6H433.164H393.164V676H433.164ZM433.164 465.6V505.6H492.764V465.6V425.6H433.164V465.6ZM492.764 465.6H452.764V676H492.764H532.764V465.6H492.764ZM492.764 676V636H433.164V676V716H492.764V676ZM463.164 432V392C462.9 392 462.827 391.98 462.907 391.993C462.992 392.008 463.162 392.046 463.382 392.126C463.602 392.206 463.784 392.297 463.908 392.37C464.029 392.442 464.026 392.455 463.903 392.35L437.964 422.8L412.025 453.25C426.58 465.648 444.214 472 463.164 472V432ZM437.964 422.8L465.095 393.408C465.465 393.749 465.905 394.232 466.333 394.852C466.762 395.474 467.083 396.094 467.303 396.644C467.754 397.772 467.564 398.036 467.564 396.8H427.564H387.564C387.564 416.955 394.37 436.996 410.833 452.192L437.964 422.8ZM427.564 396.8H467.564C467.564 395.548 467.759 395.935 467.223 397.255C466.958 397.907 466.57 398.645 466.043 399.387C465.518 400.129 464.962 400.722 464.467 401.16L437.964 371.2L411.461 341.24C394.375 356.355 387.564 376.685 387.564 396.8H427.564ZM437.964 371.2L464.539 401.096C464.683 400.968 464.691 400.981 464.553 401.066C464.411 401.154 464.188 401.271 463.904 401.38C463.62 401.488 463.369 401.551 463.19 401.582C463.017 401.613 462.994 401.6 463.164 401.6V361.6V321.6C443.73 321.6 425.883 328.42 411.39 341.304L437.964 371.2ZM463.164 361.6V401.6C463.335 401.6 463.286 401.614 463.062 401.573C462.832 401.532 462.505 401.45 462.124 401.303C461.743 401.155 461.412 400.982 461.154 400.82C460.901 400.66 460.797 400.559 460.833 400.592L487.964 371.2L515.095 341.808C500.632 328.457 482.625 321.6 463.164 321.6V361.6ZM487.964 371.2L462.025 401.65C461.573 401.265 461.023 400.706 460.479 399.968C459.934 399.227 459.511 398.462 459.21 397.748C458.594 396.289 458.764 395.725 458.764 396.8H498.764H538.764C538.764 376.179 531.463 355.709 513.903 340.75L487.964 371.2ZM498.764 396.8H458.764C458.764 397.858 458.599 397.42 459.124 396.156C459.378 395.545 459.732 394.895 460.179 394.271C460.623 393.651 461.06 393.197 461.39 392.904L487.964 422.8L514.539 452.696C531.479 437.638 538.764 417.448 538.764 396.8H498.764ZM487.964 422.8L461.461 392.84C461.451 392.849 461.564 392.749 461.802 392.605C462.044 392.459 462.336 392.315 462.652 392.197C462.966 392.081 463.213 392.025 463.347 392.001C463.476 391.979 463.429 392 463.164 392V432V472C482.131 472 499.929 465.62 514.467 452.76L487.964 422.8ZM555.189 667.2L534.859 701.648C534.94 701.696 535.022 701.744 535.104 701.792L555.189 667.2ZM518.789 628L482.783 645.422V645.422L518.789 628ZM521.189 510.4L486.698 490.143C486.664 490.2 486.631 490.257 486.598 490.315L521.189 510.4ZM558.789 472.8L577.9 507.939C577.971 507.901 578.042 507.862 578.112 507.823L558.789 472.8ZM659.189 472.4L639.274 507.09C639.437 507.183 639.6 507.275 639.763 507.366L659.189 472.4ZM692.389 508.4L656.375 525.807C656.453 525.968 656.532 526.128 656.612 526.289L692.389 508.4ZM703.989 579.6L743.901 582.261C743.904 582.206 743.908 582.15 743.911 582.095L703.989 579.6ZM703.189 590.4V630.4C723.993 630.4 741.323 614.453 743.051 593.722L703.189 590.4ZM567.989 590.4V550.4C556.628 550.4 545.803 555.231 538.216 563.688C530.629 572.144 526.996 583.428 528.223 594.722L567.989 590.4ZM585.189 619.6L562.021 652.207V652.207L585.189 619.6ZM657.989 627.6L665.056 666.971C665.315 666.924 665.575 666.875 665.834 666.823L657.989 627.6ZM683.989 620L723.454 613.477C721.438 601.285 713.901 590.709 703.034 584.825C692.167 578.941 679.191 578.411 667.88 583.387L683.989 620ZM691.989 668.4L709.878 704.177C725.566 696.333 734.314 679.183 731.454 661.877L691.989 668.4ZM661.189 677.2L653.773 637.894C653.485 637.948 653.197 638.005 652.911 638.066L661.189 677.2ZM567.989 549.6L528.454 543.518C526.68 555.053 530.031 566.788 537.63 575.645C545.23 584.503 556.318 589.6 567.989 589.6V549.6ZM646.789 549.6V589.6C657.675 589.6 668.091 585.163 675.633 577.313C683.175 569.463 687.192 558.879 686.757 548.001L646.789 549.6ZM642.389 530.4L605.706 546.349L605.706 546.349L642.389 530.4ZM629.989 515.2L605.989 547.2C606.237 547.386 606.487 547.569 606.74 547.749L629.989 515.2ZM586.389 515.2L609.328 547.969C609.432 547.896 609.535 547.823 609.639 547.749L586.389 515.2ZM573.989 530L610.074 547.258V547.258L573.989 530ZM617.989 681.6V641.6C597.488 641.6 584.035 637.695 575.274 632.608L555.189 667.2L535.104 701.792C559.409 715.905 587.824 721.6 617.989 721.6V681.6ZM555.189 667.2L575.519 632.752C565.837 627.038 559.26 619.804 554.795 610.578L518.789 628L482.783 645.422C494.318 669.262 512.008 688.162 534.859 701.648L555.189 667.2ZM518.789 628L554.795 610.578C549.719 600.087 546.789 587.617 546.789 572.4H506.789H466.789C466.789 598.25 471.859 622.846 482.783 645.422L518.789 628ZM506.789 572.4H546.789C546.789 552.608 550.626 539.362 555.781 530.485L521.189 510.4L486.598 490.315C472.552 514.504 466.789 542.592 466.789 572.4H506.789ZM521.189 510.4L555.68 530.657C562.342 519.314 569.86 512.312 577.9 507.939L558.789 472.8L539.678 437.661C517.318 449.821 499.769 467.886 486.698 490.143L521.189 510.4ZM558.789 472.8L578.112 507.823C587.877 502.435 597.523 500 607.589 500V460V420C583.522 420 560.634 426.098 539.466 437.777L558.789 472.8ZM607.589 460V500C622.029 500 632.064 502.951 639.274 507.09L659.189 472.4L679.104 437.71C657.515 425.316 633.149 420 607.589 420V460ZM659.189 472.4L639.763 507.366C646.381 511.043 651.932 516.613 656.375 525.807L692.389 508.4L728.403 490.993C717.38 468.187 700.798 449.757 678.615 437.434L659.189 472.4ZM692.389 508.4L656.612 526.289C661.08 535.224 664.389 548.533 664.389 568H704.389H744.389C744.389 540 739.698 513.576 728.166 490.511L692.389 508.4ZM704.389 568H664.389C664.389 570.47 664.293 573.486 664.067 577.105L703.989 579.6L743.911 582.095C744.218 577.18 744.389 572.464 744.389 568H704.389ZM703.989 579.6L664.078 576.939C663.822 580.77 663.572 584.144 663.327 587.078L703.189 590.4L743.051 593.722C743.34 590.256 743.623 586.43 743.901 582.261L703.989 579.6ZM703.189 590.4V550.4H567.989V590.4V630.4H703.189V590.4ZM567.989 590.4L528.223 594.722C530.803 618.453 542.646 638.441 562.021 652.207L585.189 619.6L608.357 586.993C607.848 586.631 607.635 586.41 607.603 586.375C607.578 586.348 607.653 586.427 607.754 586.599C607.8 586.676 607.837 586.749 607.864 586.809C607.891 586.87 607.9 586.901 607.898 586.892C607.895 586.883 607.816 586.638 607.755 586.078L567.989 590.4ZM585.189 619.6L562.021 652.207C581.029 665.713 603.644 670.4 625.989 670.4V630.4V590.4C614.201 590.4 609.616 587.887 608.357 586.993L585.189 619.6ZM625.989 630.4V670.4C639.21 670.4 652.244 669.27 665.056 666.971L657.989 627.6L650.922 588.229C642.934 589.663 634.635 590.4 625.989 590.4V630.4ZM657.989 627.6L665.834 666.823C678.095 664.371 689.826 661.133 700.099 656.613L683.989 620L667.88 583.387C664.819 584.734 659.216 586.562 650.144 588.377L657.989 627.6ZM683.989 620L644.525 626.523L652.525 674.923L691.989 668.4L731.454 661.877L723.454 613.477L683.989 620ZM691.989 668.4L674.101 632.623C674.114 632.616 674.005 632.671 673.752 632.779C673.5 632.886 673.137 633.032 672.65 633.211C671.66 633.575 670.297 634.026 668.5 634.539C664.867 635.577 660.019 636.715 653.773 637.894L661.189 677.2L668.605 716.506C683.487 713.699 698.293 709.969 709.878 704.177L691.989 668.4ZM661.189 677.2L652.911 638.066C641.907 640.394 630.289 641.6 617.989 641.6V681.6V721.6C635.556 721.6 652.738 719.873 669.467 716.334L661.189 677.2ZM567.989 549.6V589.6H646.789V549.6V509.6H567.989V549.6ZM646.789 549.6L686.757 548.001C686.292 536.377 683.707 525.112 679.072 514.451L642.389 530.4L605.706 546.349C606.404 547.955 606.753 549.49 606.821 551.199L646.789 549.6ZM642.389 530.4L679.072 514.451C673.428 501.47 664.558 490.736 653.239 482.651L629.989 515.2L606.74 547.749C606.798 547.791 606.59 547.648 606.294 547.285C605.994 546.917 605.799 546.563 605.706 546.349L642.389 530.4ZM629.989 515.2L653.989 483.2C639.622 472.425 623.038 469.2 608.389 469.2V509.2V549.2C610.045 549.2 610.418 549.389 609.883 549.241C609.261 549.068 607.761 548.529 605.989 547.2L629.989 515.2ZM608.389 509.2V469.2C593.61 469.2 577.385 472.475 563.14 482.651L586.389 515.2L609.639 547.749C608.949 548.242 608.3 548.604 607.748 548.86C607.201 549.114 606.802 549.239 606.614 549.291C606.266 549.385 606.75 549.2 608.389 549.2V509.2ZM586.389 515.2L563.451 482.431C552.217 490.294 543.673 500.678 537.904 512.742L573.989 530L610.074 547.258C610.175 547.048 610.156 547.143 609.95 547.389C609.855 547.502 609.744 547.619 609.624 547.728C609.504 547.838 609.4 547.918 609.328 547.969L586.389 515.2ZM573.989 530L537.904 512.742C533.226 522.523 530.098 532.834 528.454 543.518L567.989 549.6L607.524 555.682C608.014 552.499 608.886 549.744 610.074 547.258L573.989 530ZM763.983 676L727.217 691.757C733.52 706.464 747.982 716 763.983 716V676ZM748.383 636.4L710.772 650.018C710.798 650.088 710.823 650.158 710.849 650.228L748.383 636.4ZM712.383 527.6L674.056 539.048C674.07 539.094 674.084 539.14 674.098 539.186L712.383 527.6ZM694.383 465.6V425.6C681.855 425.6 670.051 431.469 662.49 441.458C654.929 451.447 652.484 464.401 655.885 476.458L694.383 465.6ZM757.183 465.6L796.23 456.923C792.163 438.621 775.931 425.6 757.183 425.6V465.6ZM763.983 497.2L724.831 505.395C724.906 505.752 724.986 506.109 725.071 506.465L763.983 497.2ZM771.983 532L732.935 540.677C732.996 540.952 733.06 541.225 733.127 541.498L771.983 532ZM780.783 568.4L741.88 577.703C741.96 578.039 742.044 578.373 742.133 578.706L780.783 568.4ZM790.383 603.2L751.922 614.189C756.792 631.234 772.3 643.04 790.026 643.198C807.753 643.356 823.469 631.828 828.642 614.872L790.383 603.2ZM803.983 555.2L765.451 544.462C765.396 544.658 765.343 544.854 765.292 545.051L803.983 555.2ZM816.383 508L777.657 497.985C777.616 498.143 777.576 498.301 777.537 498.459L816.383 508ZM826.383 465.6V425.6C807.436 425.6 791.088 438.893 787.224 457.442L826.383 465.6ZM869.583 465.6L908.53 456.485C904.296 438.394 888.163 425.6 869.583 425.6V465.6ZM879.183 507.6L840.151 516.348C840.211 516.613 840.273 516.877 840.337 517.141L879.183 507.6ZM891.183 555.2L852.452 565.195C852.465 565.246 852.478 565.297 852.492 565.348L891.183 555.2ZM904.383 603.2L865.947 614.275C870.887 631.42 886.585 643.22 904.428 643.2C922.27 643.18 937.942 631.345 942.844 614.189L904.383 603.2ZM913.583 568.4L874.878 558.303C874.826 558.502 874.776 558.702 874.727 558.902L913.583 568.4ZM922.783 532L961.639 541.498V541.498L922.783 532ZM930.783 497.2L891.823 488.139C891.77 488.365 891.719 488.592 891.671 488.819L930.783 497.2ZM937.983 465.6V425.6C919.235 425.6 903.002 438.621 898.935 456.923L937.983 465.6ZM999.983 465.6L1038.48 476.458C1041.88 464.401 1039.44 451.447 1031.88 441.458C1024.31 431.469 1012.51 425.6 999.983 425.6V465.6ZM981.583 527.2L943.44 515.155C943.391 515.307 943.344 515.46 943.298 515.614L981.583 527.2ZM963.183 585.2L925.235 572.551V572.551L963.183 585.2ZM945.583 636L907.972 622.382V622.382L945.583 636ZM929.983 676V716C945.984 716 960.445 706.464 966.749 691.757L929.983 676ZM883.583 676L845.417 687.974C850.649 704.651 866.104 716 883.583 716V676ZM870.383 635.6L832.286 647.791C832.359 648.02 832.435 648.248 832.512 648.476L870.383 635.6ZM857.983 595.6L896.296 584.106V584.106L857.983 595.6ZM846.383 555.2L884.956 544.611C880.151 527.109 864.165 515.035 846.016 515.202C827.868 515.368 812.105 527.733 807.622 545.32L846.383 555.2ZM835.183 595.6L796.87 584.106C796.799 584.342 796.731 584.578 796.664 584.815L835.183 595.6ZM823.183 635.6L785.086 623.409C785.012 623.641 784.94 623.873 784.87 624.106L823.183 635.6ZM810.383 676V716C827.6 716 842.886 704.983 848.33 688.649L810.383 676ZM763.983 676L800.749 660.243C796.293 649.847 791.35 637.319 785.917 622.572L748.383 636.4L710.849 650.228C716.616 665.881 722.073 679.753 727.217 691.757L763.983 676ZM748.383 636.4L785.993 622.782C780.528 607.688 774.774 591.082 768.73 572.951L730.783 585.6L692.836 598.249C699.058 616.918 705.037 634.179 710.772 650.018L748.383 636.4ZM730.783 585.6L768.73 572.951C762.724 554.934 756.703 535.956 750.668 516.014L712.383 527.6L674.098 539.186C680.329 559.777 686.575 579.466 692.836 598.249L730.783 585.6ZM712.383 527.6L750.71 516.152C744.635 495.816 738.692 475.346 732.881 454.742L694.383 465.6L655.885 476.458C661.807 497.454 667.864 518.317 674.056 539.048L712.383 527.6ZM694.383 465.6V505.6H757.183V465.6V425.6H694.383V465.6ZM757.183 465.6L718.135 474.277C720.227 483.69 722.459 494.06 724.831 505.395L763.983 497.2L803.134 489.005C800.707 477.407 798.405 466.71 796.23 456.923L757.183 465.6ZM763.983 497.2L725.071 506.465C727.688 517.457 730.309 528.86 732.935 540.677L771.983 532L811.03 523.323C808.323 511.14 805.611 499.343 802.895 487.935L763.983 497.2ZM771.983 532L733.127 541.498C736.044 553.432 738.962 565.5 741.88 577.703L780.783 568.4L819.686 559.097C816.737 546.767 813.788 534.568 810.839 522.502L771.983 532ZM780.783 568.4L742.133 578.706C745.39 590.92 748.653 602.748 751.922 614.189L790.383 603.2L828.844 592.211C825.713 581.252 822.575 569.88 819.432 558.094L780.783 568.4ZM790.383 603.2L828.642 614.872C833.599 598.623 838.276 582.115 842.674 565.349L803.983 555.2L765.292 545.051C761.156 560.819 756.766 576.311 752.124 591.528L790.383 603.2ZM803.983 555.2L842.514 565.938C847.15 549.305 851.389 533.172 855.228 517.541L816.383 508L777.537 498.459C773.91 513.228 769.882 528.562 765.451 544.462L803.983 555.2ZM816.383 508L855.109 518.015C859.234 502.062 862.721 487.299 865.542 473.758L826.383 465.6L787.224 457.442C784.711 469.501 781.531 483.004 777.657 497.985L816.383 508ZM826.383 465.6V505.6H869.583V465.6V425.6H826.383V465.6ZM869.583 465.6L830.635 474.715C833.534 487.103 836.706 500.978 840.151 516.348L879.183 507.6L918.214 498.852C914.726 483.289 911.498 469.164 908.53 456.485L869.583 465.6ZM879.183 507.6L840.337 517.141C844.111 532.505 848.15 548.524 852.452 565.195L891.183 555.2L929.914 545.205C925.683 528.809 921.721 513.094 918.028 498.059L879.183 507.6ZM891.183 555.2L852.492 565.348C856.837 581.917 861.322 598.226 865.947 614.275L904.383 603.2L942.819 592.125C938.377 576.708 934.062 561.017 929.874 545.051L891.183 555.2ZM904.383 603.2L942.844 614.189C946.193 602.466 949.391 590.368 952.439 577.898L913.583 568.4L874.727 558.902C871.908 570.432 868.972 581.534 865.922 592.211L904.383 603.2ZM913.583 568.4L952.287 578.497C955.538 566.036 958.655 553.703 961.639 541.498L922.783 532L883.927 522.502C881.044 534.297 878.028 546.23 874.878 558.303L913.583 568.4ZM922.783 532L961.639 541.498C964.656 529.156 967.409 517.182 969.895 505.581L930.783 497.2L891.671 488.819C889.357 499.618 886.776 510.844 883.927 522.502L922.783 532ZM930.783 497.2L969.743 506.261C972.434 494.69 974.864 484.027 977.03 474.277L937.983 465.6L898.935 456.923C896.835 466.373 894.465 476.776 891.823 488.139L930.783 497.2ZM937.983 465.6V505.6H999.983V465.6V425.6H937.983V465.6ZM999.983 465.6L961.485 454.742C955.728 475.151 949.713 495.288 943.44 515.155L981.583 527.2L1019.73 539.245C1026.25 518.578 1032.5 497.649 1038.48 476.458L999.983 465.6ZM981.583 527.2L943.298 515.614C937.262 535.556 931.241 554.534 925.235 572.551L963.183 585.2L1001.13 597.849C1007.39 579.066 1013.64 559.377 1019.87 538.786L981.583 527.2ZM963.183 585.2L925.235 572.551C919.192 590.682 913.438 607.288 907.972 622.382L945.583 636L983.193 649.618C988.928 633.779 994.907 616.518 1001.13 597.849L963.183 585.2ZM945.583 636L907.972 622.382C902.55 637.359 897.632 649.942 893.217 660.243L929.983 676L966.749 691.757C971.934 679.658 977.416 665.574 983.193 649.618L945.583 636ZM929.983 676V636H883.583V676V716H929.983V676ZM883.583 676L921.749 664.026C917.388 650.128 912.89 636.36 908.254 622.724L870.383 635.6L832.512 648.476C836.942 661.506 841.244 674.672 845.417 687.974L883.583 676ZM870.383 635.6L908.48 623.409C904.287 610.306 900.226 597.205 896.296 584.106L857.983 595.6L819.67 607.094C823.74 620.662 827.945 634.227 832.286 647.791L870.383 635.6ZM857.983 595.6L896.296 584.106C892.387 571.077 888.607 557.913 884.956 544.611L846.383 555.2L807.81 565.789C811.625 579.687 815.578 593.456 819.67 607.094L857.983 595.6ZM846.383 555.2L807.622 545.32C804.292 558.383 800.708 571.312 796.87 584.106L835.183 595.6L873.496 607.094C877.658 593.221 881.54 579.217 885.143 565.08L846.383 555.2ZM835.183 595.6L796.664 584.815C793.064 597.672 789.205 610.536 785.086 623.409L823.183 635.6L861.28 647.791C865.694 633.997 869.835 620.195 873.701 606.385L835.183 595.6ZM823.183 635.6L784.87 624.106C780.989 637.041 776.845 650.123 772.435 663.351L810.383 676L848.33 688.649C852.987 674.677 857.376 660.825 861.496 647.094L823.183 635.6ZM810.383 676V636H763.983V676V716H810.383V676Z" fill="#45007D" mask="url(#path-9-outside-1_3327_78)"/>
<path d="M512 742.4C639.246 742.4 742.4 639.246 742.4 512C742.4 384.754 639.246 281.6 512 281.6C384.754 281.6 281.6 384.754 281.6 512C281.6 639.246 384.754 742.4 512 742.4Z" stroke="#8C00FF" stroke-width="0.5"/>
<path d="M276.5 788.5C276.5 837.239 236.989 876.75 188.25 876.75C139.511 876.75 100 837.239 100 788.5C100 739.761 139.511 700.25 188.25 700.25C236.989 700.25 276.5 739.761 276.5 788.5Z" fill="#AA43FF" fill-opacity="0.5"/>
<path d="M824 728.898C824 797.602 768.305 853.297 699.602 853.297C630.898 853.297 575.203 797.602 575.203 728.898C575.203 660.195 630.898 604.5 699.602 604.5C768.305 604.5 824 660.195 824 728.898Z" fill="#AA43FF" fill-opacity="0.5"/>
<path d="M728 102C728 134.033 702.033 160 670 160C637.967 160 612 134.033 612 102C612 69.9675 637.967 44 670 44C702.033 44 728 69.9675 728 102Z" fill="#AA43FF" fill-opacity="0.5"/>
<path d="M276.5 788.5C276.5 837.239 236.989 876.75 188.25 876.75C139.511 876.75 100 837.239 100 788.5C100 739.761 139.511 700.25 188.25 700.25C236.989 700.25 276.5 739.761 276.5 788.5Z" fill="#AA43FF" fill-opacity="0.25"/>
<path d="M612 512C612 567.228 567.228 612 512 612C456.772 612 412 567.228 412 512C412 456.772 456.772 412 512 412C567.228 412 612 456.772 612 512Z" fill="#AA43FF" fill-opacity="0.25"/>
<path d="M537 512C537 525.807 525.807 537 512 537C498.193 537 487 525.807 487 512C487 498.193 498.193 487 512 487C525.807 487 537 498.193 537 512Z" fill="#0B0B10"/>
<path d="M763 728C763 761.137 736.137 788 703 788C669.863 788 643 761.137 643 728C643 694.863 669.863 668 703 668C736.137 668 763 694.863 763 728Z" fill="#AA43FF"/>
</g>
<defs>
<linearGradient id="paint0_linear_3327_78" x1="512" y1="0" x2="512" y2="1024" gradientUnits="userSpaceOnUse">
<stop offset="0.192308" stop-color="#1E1E2E"/>
<stop offset="1" stop-color="#0B0B10"/>
</linearGradient>
<radialGradient id="paint1_radial_3327_78" cx="0" cy="0" r="1" gradientUnits="userSpaceOnUse" gradientTransform="translate(512 512) rotate(90) scale(512)">
<stop offset="0.245192" stop-color="#6E00C7"/>
<stop offset="1"/>
</radialGradient>
<radialGradient id="paint2_radial_3327_78" cx="0" cy="0" r="1" gradientUnits="userSpaceOnUse" gradientTransform="translate(510.224 510.224) scale(269.584)">
<stop stop-color="#313244"/>
<stop offset="0.8" stop-color="#181825"/>
<stop offset="1" stop-color="#1E1E2E"/>
</radialGradient>
</defs>
</svg>
