<svg width="1024" height="1024" viewBox="0 0 1024 1024" fill="none" xmlns="http://www.w3.org/2000/svg">
<rect x="0.5" y="0.5" width="1023" height="1023" fill="black" stroke="black"/>
<path d="M512 0.200195C794.659 0.200195 1023.8 229.341 1023.8 512C1023.8 794.659 794.659 1023.8 512 1023.8C229.341 1023.8 0.200195 794.659 0.200195 512C0.200195 229.341 229.341 0.200195 512 0.200195Z" stroke="#AA43FF" stroke-width="0.4"/>
<path d="M510.537 72.1801C752.635 72.1802 948.894 268.44 948.894 510.537C948.894 752.635 752.635 948.894 510.537 948.894C268.44 948.894 72.1802 752.635 72.1801 510.537C72.1801 268.44 268.44 72.1801 510.537 72.1801Z" fill="black" stroke="#AA43FF"/>
<path d="M491.52 146.585C693.332 146.585 856.934 310.187 856.935 512C856.935 713.812 693.332 877.415 491.52 877.415C289.707 877.414 126.105 713.812 126.105 512C126.106 310.187 289.707 146.586 491.52 146.585Z" fill="black" stroke="#AA43FF" stroke-width="0.6"/>
<path d="M491.52 863.543C686.934 863.543 845.348 705.129 845.348 509.714C845.348 314.3 686.934 155.886 491.52 155.886C296.106 155.886 137.691 314.3 137.691 509.714C137.691 705.129 296.106 863.543 491.52 863.543Z" stroke="#AA43FF" stroke-opacity="0.5" stroke-width="0.6"/>
<path d="M512.731 220.66C674.038 220.66 804.803 351.425 804.803 512.731C804.803 674.038 674.038 804.803 512.731 804.803C351.425 804.803 220.66 674.038 220.66 512.731C220.66 351.425 351.425 220.66 512.731 220.66Z" fill="black" stroke="#AA43FF"/>
<path opacity="0.9" d="M510.224 779.807C659.111 779.807 779.807 659.111 779.807 510.224C779.807 361.337 659.111 240.64 510.224 240.64C361.337 240.64 240.64 361.337 240.64 510.224C240.64 659.111 361.337 779.807 510.224 779.807Z" fill="url(#paint0_radial_3323_83)" stroke="#AA43FF" stroke-width="0.6"/>
<path d="M512 282.1C638.97 282.1 741.9 385.03 741.9 512C741.9 638.97 638.97 741.9 512 741.9C385.03 741.9 282.1 638.97 282.1 512C282.1 385.03 385.03 282.1 512 282.1Z" fill="#AA43FF" fill-opacity="0.2" stroke="#AA43FF"/>
<path d="M512 742.4C639.246 742.4 742.4 639.246 742.4 512C742.4 384.754 639.246 281.6 512 281.6C384.754 281.6 281.6 384.754 281.6 512C281.6 639.246 384.754 742.4 512 742.4Z" stroke="#AA43FF" stroke-width="0.5"/>
<path d="M276.5 788.5C276.5 837.239 236.989 876.75 188.25 876.75C139.511 876.75 100 837.239 100 788.5C100 739.761 139.511 700.25 188.25 700.25C236.989 700.25 276.5 739.761 276.5 788.5Z" fill="#AA43FF" fill-opacity="0.5"/>
<path d="M824 728.898C824 797.602 768.305 853.297 699.602 853.297C630.898 853.297 575.203 797.602 575.203 728.898C575.203 660.195 630.898 604.5 699.602 604.5C768.305 604.5 824 660.195 824 728.898Z" fill="#AA43FF" fill-opacity="0.5"/>
<path d="M728 102C728 134.033 702.033 160 670 160C637.967 160 612 134.033 612 102C612 69.9675 637.967 44 670 44C702.033 44 728 69.9675 728 102Z" fill="#AA43FF" fill-opacity="0.5"/>
<path d="M276.5 788.5C276.5 837.239 236.989 876.75 188.25 876.75C139.511 876.75 100 837.239 100 788.5C100 739.761 139.511 700.25 188.25 700.25C236.989 700.25 276.5 739.761 276.5 788.5Z" fill="#AA43FF" fill-opacity="0.25"/>
<path d="M612 512C612 567.228 567.228 612 512 612C456.772 612 412 567.228 412 512C412 456.772 456.772 412 512 412C567.228 412 612 456.772 612 512Z" fill="#AA43FF" fill-opacity="0.25"/>
<path d="M537 512C537 525.807 525.807 537 512 537C498.193 537 487 525.807 487 512C487 498.193 498.193 487 512 487C525.807 487 537 498.193 537 512Z" fill="#0B0B10"/>
<path d="M763 728C763 761.137 736.137 788 703 788C669.863 788 643 761.137 643 728C643 694.863 669.863 668 703 668C736.137 668 763 694.863 763 728Z" fill="#AA43FF"/>
<path d="M47.9453 676V472.8C58.0786 469.867 71.1453 467.2 87.1453 464.8C103.145 462.133 119.945 460.8 137.545 460.8C161.545 460.8 180.212 464.933 193.545 473.2C206.879 481.2 216.212 492.4 221.545 506.8C226.879 521.2 229.545 538 229.545 557.2V676H169.945V564.4C169.945 551.6 168.879 541.333 166.745 533.6C164.612 525.867 160.879 520.267 155.545 516.8C150.479 513.333 143.279 511.6 133.945 511.6C129.679 511.6 125.145 511.867 120.345 512.4C115.545 512.667 111.279 513.067 107.545 513.6V676H47.9453Z" fill="white"/>
<path d="M302.442 676C295.776 662.667 288.842 648.267 281.642 632.8C274.709 617.067 267.776 600.4 260.842 582.8C254.176 564.933 247.509 546.267 240.842 526.8C234.176 507.067 227.642 486.667 221.242 465.6H284.442C288.176 479.467 292.442 494.8 297.242 511.6C302.042 528.133 307.109 544.533 312.442 560.8C318.042 577.067 323.242 591.6 328.042 604.4C331.509 594.8 335.242 584.133 339.242 572.4C343.242 560.667 347.109 548.667 350.842 536.4C354.842 523.867 358.576 511.6 362.042 499.6C365.776 487.333 368.976 476 371.642 465.6H433.242C426.842 486.667 420.309 507.067 413.642 526.8C406.976 546.267 400.176 564.933 393.242 582.8C386.576 600.4 379.776 617.067 372.842 632.8C365.909 648.267 358.976 662.667 352.042 676H302.442ZM433.164 676V465.6H492.764V676H433.164ZM463.164 432C453.564 432 445.164 428.933 437.964 422.8C431.031 416.4 427.564 407.733 427.564 396.8C427.564 385.867 431.031 377.333 437.964 371.2C445.164 364.8 453.564 361.6 463.164 361.6C472.764 361.6 481.031 364.8 487.964 371.2C495.164 377.333 498.764 385.867 498.764 396.8C498.764 407.733 495.164 416.4 487.964 422.8C481.031 428.933 472.764 432 463.164 432ZM617.989 681.6C592.656 681.6 571.722 676.8 555.189 667.2C538.922 657.6 526.789 644.533 518.789 628C510.789 611.467 506.789 592.933 506.789 572.4C506.789 547.6 511.589 526.933 521.189 510.4C531.056 493.6 543.589 481.067 558.789 472.8C574.256 464.267 590.522 460 607.589 460C627.589 460 644.789 464.133 659.189 472.4C673.589 480.4 684.656 492.4 692.389 508.4C700.389 524.4 704.389 544.267 704.389 568C704.389 571.467 704.256 575.333 703.989 579.6C703.722 583.6 703.456 587.2 703.189 590.4H567.989C569.322 602.667 575.056 612.4 585.189 619.6C595.322 626.8 608.922 630.4 625.989 630.4C636.922 630.4 647.589 629.467 657.989 627.6C668.656 625.467 677.322 622.933 683.989 620L691.989 668.4C685.589 671.6 675.322 674.533 661.189 677.2C647.322 680.133 632.922 681.6 617.989 681.6ZM567.989 549.6H646.789C646.522 542.933 645.056 536.533 642.389 530.4C639.722 524.267 635.589 519.2 629.989 515.2C624.656 511.2 617.456 509.2 608.389 509.2C599.322 509.2 591.989 511.2 586.389 515.2C581.056 518.933 576.922 523.867 573.989 530C571.056 536.133 569.056 542.667 567.989 549.6ZM763.983 676C759.183 664.8 753.983 651.6 748.383 636.4C742.783 620.933 736.916 604 730.783 585.6C724.649 567.2 718.516 547.867 712.383 527.6C706.249 507.067 700.249 486.4 694.383 465.6H757.183C759.316 475.2 761.583 485.733 763.983 497.2C766.649 508.4 769.316 520 771.983 532C774.916 544 777.849 556.133 780.783 568.4C783.983 580.4 787.183 592 790.383 603.2C795.183 587.467 799.716 571.467 803.983 555.2C808.516 538.933 812.649 523.2 816.383 508C820.383 492.533 823.716 478.4 826.383 465.6H869.583C872.516 478.133 875.716 492.133 879.183 507.6C882.916 522.8 886.916 538.667 891.183 555.2C895.449 571.467 899.849 587.467 904.383 603.2C907.583 592 910.649 580.4 913.583 568.4C916.783 556.133 919.849 544 922.783 532C925.716 520 928.383 508.4 930.783 497.2C933.449 485.733 935.849 475.2 937.983 465.6H999.983C994.116 486.4 987.983 506.933 981.583 527.2C975.449 547.467 969.316 566.8 963.183 585.2C957.049 603.6 951.183 620.533 945.583 636C939.983 651.467 934.783 664.8 929.983 676H883.583C879.316 662.4 874.916 648.933 870.383 635.6C866.116 622.267 861.983 608.933 857.983 595.6C853.983 582.267 850.116 568.8 846.383 555.2C842.916 568.8 839.183 582.267 835.183 595.6C831.449 608.933 827.449 622.267 823.183 635.6C819.183 648.933 814.916 662.4 810.383 676H763.983Z" fill="#AA43FF"/>
<defs>
<radialGradient id="paint0_radial_3323_83" cx="0" cy="0" r="1" gradientUnits="userSpaceOnUse" gradientTransform="translate(510.224 510.224) scale(269.584)">
<stop stop-color="#313244"/>
<stop offset="0.8" stop-color="#181825"/>
<stop offset="1" stop-color="#1E1E2E"/>
</radialGradient>
</defs>
</svg>
